<?xml version="1.0" standalone="no"?>
<!DOCTYPE svg PUBLIC "-//W3C//DTD SVG 20010904//EN"
 "http://www.w3.org/TR/2001/REC-SVG-20010904/DTD/svg10.dtd">
<svg version="1.0" xmlns="http://www.w3.org/2000/svg"
 width="512.000000pt" height="512.000000pt" viewBox="0 0 512.000000 512.000000"
 preserveAspectRatio="xMidYMid meet">
<metadata>
Created by potrace 1.11, written by Peter Selinger 2001-2013
</metadata>
<g transform="translate(0.000000,512.000000) scale(0.100000,-0.100000)"
fill="#000000" stroke="none">
<path d="M2194 5109 c-1 -3 2 -6 9 -6 7 0 21 -4 32 -8 16 -6 17 -5 5 4 -12 9
-11 11 7 8 12 -2 26 -7 30 -11 5 -4 4 -6 -2 -5 -5 2 -21 -3 -34 -10 -16 -9
-21 -9 -16 -1 5 7 1 11 -11 10 -11 -1 -21 -1 -24 0 -26 9 -38 6 -32 -8 4 -13
3 -15 -9 -6 -16 12 -29 12 -46 1 -8 -5 -13 -4 -13 3 0 6 -5 8 -10 5 -6 -4 -7
-11 -4 -17 4 -7 2 -8 -4 -4 -7 4 -12 2 -12 -5 0 -7 -8 -3 -18 9 l-18 21 -14
-22 c-12 -20 -12 -21 3 -8 21 16 23 5 3 -14 -12 -12 -15 -12 -20 2 -6 14 -8
14 -22 -3 -15 -19 -15 -19 -10 1 6 20 6 20 -9 1 -13 -18 -19 -15 -16 6 0 4 -6
5 -15 1 -13 -5 -13 -7 -2 -14 8 -6 0 -9 -24 -9 -24 0 -38 -5 -38 -12 0 -9 -3
-8 -10 2 -8 13 -11 13 -22 1 -9 -10 -10 -12 -1 -7 9 5 11 2 6 -10 -6 -16 -7
-16 -18 0 -12 15 -13 15 -19 -1 -6 -15 -8 -15 -16 -3 -7 11 -10 12 -10 2 0 -7
-4 -10 -10 -7 -5 3 -10 1 -10 -5 0 -6 -5 -8 -11 -4 -8 4 -9 -1 -5 -17 6 -21 6
-22 -4 -6 -11 17 -13 17 -24 1 -10 -13 -15 -14 -21 -4 -6 9 -4 11 5 5 9 -5 11
-4 6 4 -10 15 -26 5 -26 -17 0 -13 -2 -13 -16 4 -13 16 -15 16 -10 2 6 -21 -4
-23 -23 -5 -8 6 -12 8 -9 2 3 -5 -4 -19 -15 -30 -11 -11 -17 -14 -13 -7 4 6 2
12 -3 12 -6 0 -11 -5 -11 -12 0 -6 -3 -8 -7 -5 -3 4 -12 -1 -20 -11 -8 -9 -12
-11 -8 -4 4 7 0 12 -10 12 -12 0 -15 -5 -11 -16 6 -15 4 -15 -11 -3 -14 12
-16 12 -8 0 6 -11 3 -13 -12 -9 -13 4 -27 -2 -37 -13 -15 -18 -13 -23 7 -20 5
1 6 -3 2 -9 -4 -6 -15 -4 -31 6 -21 14 -24 14 -18 1 3 -8 0 -18 -7 -23 -7 -4
-10 -3 -5 4 3 6 2 13 -4 17 -5 3 -10 1 -10 -5 0 -6 -5 -8 -12 -4 -8 5 -7 0 2
-11 14 -17 14 -18 -6 -7 -18 9 -24 7 -42 -13 -11 -13 -18 -26 -16 -29 2 -3 1
-4 -3 -1 -3 3 -13 -1 -21 -8 -13 -10 -14 -9 -3 13 11 24 11 24 -3 6 -9 -11
-16 -23 -16 -28 0 -4 -10 -8 -21 -8 -19 0 -20 -2 -8 -17 13 -15 12 -15 -6 -6
-25 13 -45 6 -45 -14 0 -11 -6 -14 -21 -10 -16 4 -18 3 -9 -8 8 -10 8 -15 -1
-21 -8 -4 -9 -3 -5 4 4 7 3 12 -3 12 -5 0 -13 -5 -16 -10 -5 -8 -11 -8 -19 -1
-14 11 -26 5 -26 -13 0 -6 4 -5 9 2 6 10 11 9 22 -4 8 -10 9 -15 2 -11 -6 4
-18 0 -26 -8 -12 -11 -17 -12 -21 -2 -4 6 -4 2 -2 -9 3 -16 -1 -20 -14 -17
-11 3 -19 -3 -23 -17 -5 -19 -8 -20 -29 -9 -22 12 -22 11 -8 -6 9 -11 10 -16
3 -11 -7 4 -13 3 -13 -3 0 -6 -8 -7 -17 -4 -16 6 -16 5 -4 -10 12 -15 12 -17
-4 -11 -14 6 -16 4 -10 -7 7 -12 6 -12 -7 -1 -13 10 -18 10 -24 1 -4 -8 -3 -9
4 -5 7 4 12 0 12 -10 0 -10 -3 -15 -6 -12 -7 8 -50 -34 -46 -45 1 -5 -2 -6 -8
-2 -6 3 -8 11 -5 16 4 5 1 9 -4 9 -6 0 -11 -7 -11 -15 0 -8 -6 -15 -12 -15 -9
0 -8 -4 2 -10 12 -8 11 -10 -7 -10 -13 0 -23 -5 -23 -11 0 -5 4 -7 10 -4 6 3
7 -1 3 -10 -3 -9 -9 -13 -12 -8 -9 11 -34 16 -27 4 4 -5 2 -12 -4 -16 -6 -4
-8 -10 -5 -15 3 -4 -4 -6 -15 -3 -12 3 -20 0 -20 -6 0 -7 5 -9 12 -5 7 4 8 3
4 -4 -4 -7 -16 -12 -28 -12 -17 0 -18 -2 -8 -15 11 -13 10 -14 -5 -8 -15 5
-17 3 -12 -12 6 -15 5 -16 -8 -5 -13 11 -14 10 -9 -4 4 -10 1 -16 -9 -16 -9 0
-19 -5 -23 -12 -4 -6 -3 -8 3 -5 5 3 10 0 10 -8 0 -11 -5 -12 -21 -3 -19 10
-20 10 -7 -6 13 -16 13 -17 -5 -14 -14 2 -18 -2 -16 -16 3 -18 2 -18 -14 -5
-16 13 -16 12 -5 -10 8 -15 9 -21 2 -17 -6 4 -11 2 -11 -4 0 -6 -5 -8 -10 -5
-7 4 -9 -3 -5 -22 5 -23 4 -25 -5 -10 -6 9 -16 15 -21 11 -6 -3 -5 -12 3 -22
10 -12 10 -14 1 -8 -8 4 -13 2 -13 -7 0 -8 -7 -18 -16 -21 -10 -4 -14 -12 -10
-22 5 -14 4 -15 -8 -5 -11 9 -15 8 -20 -4 -3 -9 -2 -14 2 -11 5 3 9 -1 9 -8 0
-8 -7 -12 -15 -8 -10 3 -13 1 -8 -6 4 -7 2 -12 -3 -12 -6 0 -11 5 -11 12 0 6
-3 8 -6 5 -4 -4 -1 -14 7 -24 12 -14 12 -16 0 -8 -11 6 -13 3 -8 -14 4 -17 3
-20 -7 -12 -16 14 -27 4 -19 -17 5 -11 2 -14 -10 -9 -11 4 -14 2 -10 -9 3 -8
-1 -14 -8 -14 -11 0 -11 -3 1 -10 10 -6 11 -10 2 -10 -6 0 -11 -3 -10 -7 4
-13 -53 -103 -64 -103 -6 0 -4 8 3 18 13 15 12 16 -4 3 -13 -10 -15 -17 -6
-27 9 -11 8 -15 -4 -20 -9 -3 -13 -12 -10 -20 3 -8 -1 -14 -10 -14 -9 0 -19
-5 -23 -12 -5 -7 -3 -8 6 -3 8 5 11 3 8 -6 -3 -8 -11 -13 -18 -11 -11 2 -11 0
-1 -12 9 -11 9 -16 0 -22 -8 -5 -9 -3 -4 6 5 9 4 11 -3 6 -7 -4 -12 -14 -12
-22 0 -8 -5 -14 -12 -14 -6 0 -8 -3 -5 -6 4 -4 13 -1 22 6 8 7 15 8 15 3 0 -5
-11 -15 -25 -21 -16 -7 -23 -17 -19 -27 3 -8 2 -15 -4 -15 -6 0 -9 -8 -7 -17
1 -10 -4 -26 -12 -35 -10 -11 -13 -28 -10 -45 5 -26 4 -27 -10 -8 -15 20 -15
20 -10 -2 3 -16 1 -23 -10 -23 -8 0 -11 -5 -8 -10 4 -6 12 -8 18 -4 7 3 4 -1
-5 -9 -20 -16 -25 -32 -6 -21 7 4 8 3 4 -4 -4 -7 -14 -12 -22 -12 -8 0 -14 -5
-14 -11 0 -5 4 -8 9 -4 5 3 13 0 17 -6 5 -8 3 -9 -6 -4 -10 6 -12 4 -6 -10 6
-16 4 -16 -11 -4 -14 12 -16 12 -8 0 6 -11 4 -13 -11 -8 -18 7 -18 6 -2 -6 13
-11 15 -16 6 -25 -9 -9 -9 -15 0 -24 8 -8 6 -17 -9 -36 -15 -20 -17 -27 -7
-34 10 -6 9 -8 -4 -8 -9 0 -20 -5 -24 -12 -4 -7 -3 -8 4 -4 16 10 15 -7 0 -23
-7 -8 -8 -11 -2 -8 6 3 11 0 11 -8 0 -8 -4 -12 -9 -9 -4 3 -8 1 -8 -5 0 -5 6
-12 12 -14 8 -4 7 -6 -3 -6 -20 -1 -33 -28 -16 -35 9 -3 9 -5 0 -5 -7 -1 -13
-12 -13 -26 0 -14 -5 -25 -11 -25 -5 0 -7 -5 -4 -10 4 -6 12 -8 18 -4 7 3 3
-2 -7 -10 -11 -9 -14 -16 -8 -16 7 0 12 -5 12 -11 0 -5 -6 -7 -12 -3 -8 5 -7
0 2 -11 13 -17 13 -18 0 -13 -12 5 -16 -1 -14 -22 1 -16 5 -33 8 -39 4 -6 -1
-8 -12 -6 -14 2 -18 -3 -18 -23 1 -15 5 -33 10 -41 6 -10 6 -12 -2 -7 -7 4
-12 2 -12 -3 0 -6 6 -11 13 -11 8 0 7 -4 -3 -10 -13 -9 -13 -11 0 -20 10 -6
11 -10 3 -10 -7 0 -13 -9 -13 -21 0 -11 4 -18 9 -14 5 3 13 1 16 -5 4 -6 1 -9
-7 -8 -10 2 -13 -36 -14 -195 -1 -178 0 -198 15 -193 14 5 14 5 1 -6 -22 -18
-21 -97 0 -93 11 2 15 -6 15 -26 0 -16 -4 -29 -9 -29 -5 0 -3 -7 4 -15 7 -8
10 -15 7 -15 -3 0 -2 -13 3 -29 5 -19 4 -33 -3 -40 -8 -8 -8 -14 2 -23 10 -11
11 -9 6 7 -5 16 -5 17 3 5 8 -10 8 -18 0 -27 -6 -7 -7 -13 -3 -13 4 0 2 -6 -4
-13 -8 -10 -7 -14 3 -14 8 0 13 8 11 19 -2 10 0 18 6 18 10 0 8 -28 -5 -49 -6
-10 -5 -12 2 -7 8 5 12 -2 12 -18 0 -14 4 -26 8 -26 13 0 12 -43 -1 -59 -9
-12 -9 -13 0 -7 8 4 13 2 13 -4 0 -6 6 -8 13 -4 6 4 9 4 5 -1 -4 -4 -2 -15 5
-23 9 -13 9 -14 0 -8 -7 4 -13 2 -13 -3 0 -6 8 -11 18 -12 10 0 12 -3 5 -6
-16 -6 -17 -30 -1 -35 6 -2 12 -12 14 -21 1 -9 -2 -15 -6 -12 -5 3 -12 1 -15
-5 -4 -6 -1 -9 7 -8 7 2 12 -3 10 -11 -2 -9 3 -11 15 -7 9 4 14 4 10 0 -4 -4
-1 -14 6 -22 9 -13 9 -14 0 -8 -7 4 -13 2 -13 -3 0 -6 8 -11 18 -12 15 0 15
-1 -2 -8 -18 -7 -18 -8 -3 -14 9 -3 17 -12 17 -18 0 -8 -5 -7 -17 2 -17 13
-17 12 -2 -6 9 -11 14 -27 12 -35 -4 -13 -3 -13 6 0 8 11 11 12 11 2 0 -8 5
-10 12 -6 10 5 10 4 1 -6 -6 -7 -9 -19 -6 -27 5 -12 7 -12 14 -1 6 8 6 -1 3
-22 -6 -33 -6 -34 9 -15 14 19 15 18 10 -9 -5 -23 -3 -27 8 -21 12 8 12 6 0
-8 -9 -12 -10 -17 -2 -17 7 0 9 -4 6 -10 -4 -6 1 -7 12 -3 16 6 17 5 3 -12 -9
-11 -10 -16 -2 -11 11 7 16 -6 15 -41 -1 -7 3 -10 8 -7 5 3 9 -2 9 -11 0 -9 5
-13 10 -10 14 9 12 -8 -2 -24 -11 -11 -8 -12 12 -6 23 7 24 7 10 -10 -9 -12
-10 -16 -2 -11 9 6 11 1 8 -18 -3 -14 -2 -25 2 -25 4 1 15 1 26 0 16 -1 17 -3
5 -18 -10 -11 -10 -14 -1 -9 7 4 12 2 12 -4 0 -6 5 -8 13 -4 9 6 9 5 0 -7 -10
-13 -9 -20 8 -37 11 -12 24 -22 30 -22 6 0 7 -4 4 -10 -8 -12 25 -61 36 -54 5
3 9 -2 9 -11 0 -10 -5 -13 -12 -9 -7 4 -8 3 -4 -5 6 -9 11 -9 24 1 12 10 14
10 8 0 -4 -7 -1 -15 8 -18 9 -3 16 -11 16 -16 0 -6 -6 -6 -14 1 -11 9 -16 9
-22 -1 -4 -7 -4 -10 1 -6 10 10 37 -11 29 -23 -3 -5 3 -6 12 -2 14 5 16 2 12
-15 -4 -12 -1 -25 4 -29 6 -3 8 -2 5 3 -3 6 -2 16 4 24 7 12 9 10 9 -8 0 -13
4 -21 9 -17 5 3 12 1 15 -4 4 -5 1 -13 -5 -17 -8 -5 -9 -3 -4 6 5 9 4 11 -4 6
-14 -9 3 -36 23 -36 6 0 4 5 -4 11 -13 9 -13 10 0 6 9 -2 14 -13 12 -28 -4
-23 -3 -23 11 -4 14 18 15 17 12 -15 -2 -19 -1 -30 1 -23 8 18 34 4 34 -18 0
-10 9 -24 20 -32 11 -8 17 -17 13 -21 -4 -4 1 -4 12 0 17 7 18 6 7 -8 -11 -14
-10 -16 9 -11 15 4 20 3 15 -5 -4 -7 -2 -12 4 -12 6 0 8 -5 4 -13 -5 -8 -2 -7
9 2 15 12 17 12 11 -4 -6 -14 -4 -16 6 -10 10 6 12 4 7 -7 -8 -22 3 -30 21
-15 13 9 14 9 8 0 -4 -7 -2 -13 3 -13 6 0 11 -10 11 -22 0 -19 2 -20 10 -8 9
14 11 13 14 -9 2 -15 43 -51 50 -44 3 4 6 1 6 -5 0 -7 5 -12 11 -12 15 0 41
-28 35 -38 -3 -5 1 -9 9 -9 8 0 12 4 9 9 -3 4 0 8 5 8 6 0 11 -10 11 -22 0
-19 2 -20 10 -8 8 13 10 12 10 -2 0 -10 7 -18 15 -18 14 0 20 -12 16 -33 -1
-5 3 -6 9 -2 6 3 8 10 5 15 -3 5 -1 12 5 15 6 4 10 3 9 -2 -6 -32 3 -49 26
-51 14 -1 25 3 25 10 0 6 3 8 6 5 4 -4 1 -13 -6 -22 -11 -13 -9 -15 13 -15 21
0 25 -4 22 -20 -2 -11 0 -18 4 -15 5 2 20 -5 35 -16 14 -11 26 -17 26 -12 0 4
5 1 11 -7 9 -13 10 -13 6 0 -2 8 -10 14 -16 13 -6 -2 -11 2 -11 8 0 17 24 5
35 -18 8 -15 15 -19 26 -12 11 5 16 4 16 -6 0 -8 -5 -11 -10 -8 -6 3 -7 1 -3
-5 4 -6 13 -9 21 -5 10 3 15 -1 16 -13 0 -18 1 -17 9 1 l9 20 1 -20 c2 -11 2
-24 1 -28 -1 -5 3 -6 8 -2 6 3 8 13 5 23 -5 15 -4 15 6 -1 6 -9 15 -15 21 -12
5 4 6 -2 2 -11 -4 -12 -3 -15 5 -10 7 4 12 3 12 -2 0 -6 10 -8 23 -4 18 5 20
3 10 -9 -10 -12 -7 -14 15 -13 15 0 34 -7 43 -18 16 -18 35 -25 25 -10 -3 5 1
9 9 9 8 0 12 -4 9 -8 -6 -10 31 -31 40 -22 3 3 6 -1 6 -10 0 -9 5 -19 12 -23
7 -4 8 -3 4 4 -4 7 -2 12 4 12 6 0 8 5 4 13 -5 8 -2 8 9 -2 19 -15 23 -26 5
-15 -6 4 -8 3 -5 -4 4 -5 16 -8 27 -5 15 4 20 0 20 -13 0 -16 2 -17 10 -4 8
12 10 12 11 -5 l0 -20 9 20 9 20 0 -20 c1 -17 3 -17 11 -5 7 12 10 12 10 1 0
-7 6 -11 15 -8 8 4 17 2 21 -4 3 -5 15 -7 27 -3 21 6 21 6 3 -8 -13 -10 -15
-17 -8 -22 7 -4 12 -4 12 1 0 4 5 1 11 -7 9 -13 10 -12 5 2 -3 10 -1 20 5 23
5 4 9 3 8 -2 -4 -20 2 -24 18 -12 11 10 14 10 9 2 -5 -9 0 -13 13 -13 12 0 21
6 21 13 0 8 3 7 9 -3 6 -8 7 -18 5 -22 -3 -4 2 -8 10 -8 9 0 16 -5 16 -12 0
-6 3 -8 6 -5 4 4 1 15 -7 24 -13 17 -12 17 6 2 28 -23 56 -32 88 -31 19 0 27
-4 27 -16 0 -10 3 -13 8 -7 8 11 83 15 76 4 -6 -11 22 -18 47 -12 17 5 20 3
15 -8 -4 -8 -1 -6 7 4 10 12 17 14 22 8 3 -6 3 -11 -1 -11 -3 0 -1 -7 6 -15 7
-8 17 -15 23 -15 6 0 3 6 -8 13 -12 10 -14 16 -7 21 7 4 12 2 12 -3 0 -6 5
-11 11 -11 5 0 8 4 4 9 -3 5 -1 13 5 16 6 4 10 3 9 -2 -3 -20 2 -24 16 -13 13
10 18 11 28 1 9 -10 8 -11 -7 -5 -15 6 -17 4 -11 -6 5 -8 4 -11 -1 -7 -6 3
-16 2 -23 -2 -7 -5 5 -8 28 -7 27 1 40 5 37 12 -5 13 19 13 31 -1 4 -4 2 -5
-4 -1 -7 4 -13 3 -13 -2 0 -14 361 -12 379 2 11 8 13 8 7 -2 -12 -19 105 -12
122 8 11 13 11 13 7 0 -4 -13 4 -16 40 -16 25 0 45 1 45 2 0 1 -8 8 -17 15 -9
8 -14 9 -11 4 4 -7 -3 -11 -16 -11 -15 0 -22 6 -23 20 -2 20 -1 20 8 3 10 -18
11 -18 32 0 11 10 17 12 12 4 -6 -11 -4 -13 11 -7 40 16 56 16 50 -1 -5 -13
-4 -14 9 -3 8 7 15 9 15 4 0 -5 5 -2 10 6 7 11 10 12 10 2 0 -10 4 -10 15 2
17 17 48 11 39 -8 -3 -6 0 -4 8 5 7 9 18 14 25 12 6 -2 19 6 28 19 l17 23 -6
-25 c-3 -14 -3 -19 0 -12 3 6 10 10 14 7 5 -3 12 0 16 6 5 8 3 9 -6 4 -9 -5
-11 -4 -6 4 6 9 11 9 21 1 10 -8 15 -8 21 1 5 8 3 9 -6 4 -9 -6 -11 -4 -5 5 6
10 10 10 19 -2 10 -14 15 -12 39 13 28 31 34 30 17 -1 -7 -13 -7 -21 0 -25 6
-4 10 -3 9 2 -1 4 1 16 5 25 6 13 12 15 26 8 14 -7 21 -4 34 13 14 20 15 20
10 2 -6 -20 -5 -20 10 -1 15 18 21 15 16 -9 -1 -5 8 -1 19 9 24 22 29 35 6 16
-19 -16 -20 -3 -1 15 12 12 15 12 20 -1 4 -12 10 -13 26 -4 11 6 26 8 33 4 6
-5 5 1 -3 11 -10 13 -11 16 -2 11 18 -11 74 13 65 28 -4 6 2 4 12 -4 11 -9 16
-10 11 -2 -4 7 -1 12 9 12 10 0 13 -5 9 -12 -5 -7 -3 -8 5 -4 7 5 10 14 8 20
-3 7 -1 19 5 27 8 11 9 11 4 -3 -3 -10 -1 -20 4 -23 6 -4 10 0 10 8 0 8 7 18
16 21 23 9 26 8 18 -6 -5 -8 0 -7 11 2 10 8 20 14 22 13 15 -12 13 1 -2 13
-19 15 -19 15 8 9 19 -5 27 -3 27 6 0 11 3 11 10 -1 7 -12 10 -12 10 -1 0 7 6
11 15 7 8 -3 14 0 12 6 -1 7 12 15 28 19 17 4 26 7 20 8 -5 1 0 6 13 12 14 5
20 13 16 21 -5 7 -2 9 8 5 9 -3 21 0 28 6 10 9 11 9 5 -2 -6 -10 -4 -12 4 -7
7 5 10 15 7 23 -3 8 -1 11 4 8 6 -3 13 0 16 9 3 8 14 13 26 11 14 -3 18 0 14
11 -4 10 -2 13 7 7 16 -10 38 -13 33 -4 -2 3 2 17 11 31 8 14 12 18 10 10 -3
-11 2 -16 16 -18 17 -1 19 1 7 8 -13 9 -13 11 -1 19 8 5 23 8 33 6 10 -2 16 0
13 6 -4 5 -11 6 -17 3 -7 -5 -8 -2 -4 5 5 7 14 10 21 7 16 -6 28 21 18 37 -4
7 1 6 10 -2 14 -11 17 -11 18 0 1 8 1 18 0 22 -1 4 7 3 18 -2 25 -14 47 9 28
28 -9 10 -8 11 7 5 15 -6 17 -4 11 6 -5 8 -4 11 3 7 13 -9 42 2 42 15 0 6 -8
4 -17 -3 -16 -13 -17 -12 -4 4 8 10 21 15 29 12 8 -3 16 3 19 15 3 11 9 17 14
14 5 -3 9 -2 8 3 -3 20 2 34 11 28 6 -4 7 -11 4 -17 -4 -7 -2 -8 5 -4 6 4 9
11 6 16 -3 4 2 11 11 14 8 3 13 10 10 15 -9 14 73 81 92 74 13 -4 12 -2 -3 11
-19 15 -19 16 -1 9 15 -5 18 -3 13 10 -3 9 -1 19 5 23 7 4 8 3 4 -4 -4 -7 -2
-12 5 -12 6 0 9 8 6 20 -4 16 -2 18 13 10 15 -8 18 -6 15 8 -4 26 5 34 21 21
12 -10 15 -10 12 2 -2 8 2 13 8 12 6 -1 11 5 11 13 0 10 -4 11 -11 4 -18 -18
-27 -11 -8 8 9 10 24 16 32 14 8 -3 12 -2 8 3 -4 4 0 14 10 22 10 9 11 11 2 7
-12 -7 -13 -5 -3 8 7 8 9 18 5 23 -4 4 3 2 16 -4 22 -12 23 -11 13 8 -9 16 -9
19 1 16 16 -6 61 62 52 77 -5 7 -2 9 8 6 8 -4 21 -2 29 4 11 8 9 8 -6 4 -20
-6 -20 -6 -1 9 11 8 14 15 8 15 -7 0 -12 4 -12 10 0 5 6 7 14 4 8 -3 17 0 22
7 4 8 3 10 -4 5 -7 -4 -12 -2 -12 5 0 6 8 9 20 6 13 -3 18 -1 13 5 -3 6 3 18
13 26 15 11 15 13 2 9 -9 -3 -19 -3 -22 0 -8 8 13 33 28 33 6 0 4 -5 -4 -10
-8 -5 -10 -10 -4 -10 18 0 24 13 12 27 -9 11 -7 12 7 7 15 -6 17 -3 13 14 -5
16 -2 20 14 17 12 -3 18 -2 14 2 -3 3 -1 12 5 20 9 10 8 17 -2 30 -10 11 -10
14 -1 9 7 -4 12 -2 12 8 0 8 5 18 12 22 7 5 8 3 3 -7 -8 -12 -6 -12 8 0 13 10
14 18 6 32 -7 15 -6 19 6 19 16 0 16 20 0 33 -5 5 0 6 12 2 12 -3 25 -1 29 6
5 8 3 9 -6 4 -8 -5 -11 -3 -8 6 3 8 11 13 17 11 9 -2 9 3 1 17 -7 13 -7 22 0
26 6 4 8 11 5 16 -4 5 -1 9 5 9 6 0 8 5 4 12 -4 7 -3 8 4 4 7 -4 12 -2 12 4 0
6 4 8 10 5 7 -4 7 2 1 19 -8 19 -6 27 7 38 15 12 16 11 3 -4 -16 -22 -5 -24
15 -3 9 9 11 15 4 15 -6 0 -8 5 -4 12 4 6 3 8 -4 4 -6 -3 -14 -1 -18 5 -4 8
-3 9 4 5 7 -4 12 -2 12 4 0 6 5 8 11 4 8 -5 8 -1 0 13 -12 23 -6 34 15 26 8
-3 14 -1 14 5 0 6 -6 12 -12 15 -10 3 -10 7 -1 19 7 8 10 18 6 22 -4 4 1 4 12
0 18 -7 19 -6 5 11 -8 10 -10 16 -5 13 6 -4 16 5 22 19 12 25 12 25 -9 7 l-22
-19 17 24 c12 19 14 28 5 38 -8 10 -7 12 4 8 8 -3 21 2 29 12 12 16 12 17 -1
6 -13 -10 -16 -8 -16 7 0 11 2 17 5 15 6 -7 32 46 26 55 -3 5 -2 10 2 13 5 2
3 2 -4 1 -20 -5 -24 13 -6 27 9 8 14 9 10 3 -3 -6 -1 -11 6 -11 7 0 13 7 14
16 0 9 3 26 6 38 3 13 1 25 -4 29 -6 3 -5 12 3 22 10 12 10 14 1 8 -7 -4 -13
-3 -13 3 0 5 6 12 13 15 9 5 9 7 -1 12 -9 4 -10 9 -2 19 8 10 8 15 -1 20 -7 5
-2 16 17 32 24 20 25 22 6 13 -13 -7 -26 -9 -30 -6 -3 3 0 6 7 6 7 0 9 5 5 12
-4 7 -3 8 4 4 7 -4 12 -2 12 4 0 6 3 9 8 6 4 -2 8 29 9 70 1 55 -1 73 -10 67
-9 -5 -9 -3 0 8 14 17 14 481 1 472 -5 -2 -6 -9 -3 -14 4 -5 2 -9 -3 -9 -6 0
-13 7 -16 16 -4 9 -2 13 5 8 15 -9 0 38 -15 48 -8 6 -8 8 0 8 6 0 19 -10 28
-22 15 -21 16 -21 7 -2 -6 12 -7 25 -3 29 4 5 2 5 -4 2 -15 -9 -39 19 -24 28
5 3 10 11 10 16 0 6 -5 7 -10 4 -13 -8 -8 18 5 27 6 5 5 8 -2 8 -8 0 -11 11
-9 30 2 16 1 28 -3 26 -3 -2 -12 3 -19 10 -12 13 -9 14 15 9 25 -5 26 -4 8 5
-12 6 -27 20 -34 32 -7 11 -8 17 -2 13 6 -3 11 -1 11 4 0 6 -6 11 -12 11 -9 0
-8 4 2 10 10 6 11 10 3 10 -7 0 -13 5 -13 11 0 5 4 8 8 5 5 -3 9 1 9 9 0 8 -5
11 -10 8 -6 -4 -8 1 -4 11 4 10 1 19 -8 22 -7 3 -11 12 -8 20 3 8 10 11 17 7
6 -3 5 0 -2 8 -11 12 -14 12 -22 -1 -5 -8 -10 -10 -10 -4 0 5 6 16 13 23 10
10 8 11 -7 5 -15 -6 -17 -4 -10 7 11 18 12 32 2 40 -4 3 -9 17 -10 31 -1 15
-6 24 -11 21 -5 -3 -7 0 -5 8 7 18 -10 51 -22 44 -4 -3 -6 5 -2 17 4 16 2 19
-9 13 -12 -8 -12 -6 0 8 12 15 11 17 -3 17 -19 0 -21 21 -5 37 9 9 6 10 -12 6
-24 -5 -24 -5 -4 11 11 10 15 15 9 12 -13 -6 -27 21 -19 34 3 5 -4 7 -15 5
-25 -5 -26 3 -2 21 16 13 16 14 -2 7 -15 -5 -18 -3 -13 9 4 11 -1 18 -14 21
-14 4 -17 10 -12 24 6 16 5 17 -13 3 -19 -14 -19 -14 0 8 11 12 14 22 8 22 -7
0 -12 9 -12 20 0 11 -5 20 -11 20 -5 0 -7 -6 -3 -12 5 -9 2 -9 -9 1 -18 14
-23 26 -8 16 5 -3 12 -1 16 5 3 5 -2 10 -12 10 -15 0 -16 2 -3 10 11 7 11 10
2 10 -8 0 -10 5 -6 13 6 9 4 9 -8 -1 -14 -11 -16 -10 -11 7 4 16 1 21 -13 21
-16 0 -17 2 -4 10 11 7 11 10 2 10 -7 0 -10 5 -7 10 3 6 1 10 -5 10 -7 0 -9 7
-6 16 5 14 4 15 -8 5 -11 -9 -16 -9 -22 0 -5 8 -3 9 6 4 8 -5 11 -3 8 6 -3 8
-10 13 -16 12 -7 -2 -9 4 -5 14 4 11 3 14 -5 9 -7 -4 -12 -1 -12 9 0 10 5 13
12 9 7 -4 8 -3 4 4 -4 6 -14 8 -24 5 -14 -6 -15 -4 -4 9 10 12 9 18 -3 28 -8
7 -12 17 -8 23 3 6 1 7 -6 3 -9 -6 -9 -11 0 -22 7 -8 7 -14 1 -14 -12 0 -24
28 -17 40 2 4 -5 16 -16 26 -17 16 -22 16 -30 4 -9 -13 -10 -13 -8 0 2 26 -13
63 -21 50 -5 -8 -9 -7 -13 4 -3 8 -1 18 5 22 7 4 8 3 4 -4 -5 -8 -1 -10 9 -5
13 5 14 7 3 14 -7 5 -20 9 -29 9 -9 0 -19 7 -22 14 -4 11 -1 13 11 10 14 -4
13 -3 -2 6 -14 10 -20 9 -27 -1 -6 -9 -7 -4 -3 16 4 23 3 26 -5 15 -9 -13 -11
-13 -11 2 0 10 -13 31 -30 48 -29 29 -47 40 -35 20 3 -5 1 -10 -4 -10 -14 0
-14 13 0 27 8 8 7 13 -2 18 -8 6 -10 4 -4 -6 4 -8 -2 -4 -14 9 -12 12 -20 26
-17 30 3 5 -1 9 -9 9 -8 0 -11 -5 -8 -10 4 -6 1 -7 -6 -2 -7 4 -11 15 -8 25 4
14 -1 17 -19 15 -13 -1 -21 1 -19 6 3 4 1 10 -5 14 -6 4 -7 12 -3 18 4 7 -1 6
-10 -2 -15 -12 -17 -12 -10 4 5 15 3 17 -11 12 -14 -6 -16 -3 -11 16 3 12 3
18 -2 12 -13 -16 -33 -16 -33 1 0 9 5 12 13 8 7 -4 9 -3 4 2 -5 5 -12 9 -16 9
-4 0 -22 17 -40 38 -19 21 -36 35 -40 32 -3 -3 1 -11 9 -16 12 -8 11 -9 -5 -6
-11 2 -19 9 -17 15 1 7 -3 12 -9 12 -5 0 -7 4 -4 10 4 6 -1 7 -11 3 -13 -5
-15 -3 -9 8 8 12 6 12 -8 1 -14 -12 -16 -11 -12 7 3 16 -1 21 -16 21 -10 0
-19 6 -19 14 0 8 -9 18 -20 21 -11 3 -20 11 -20 16 0 5 -6 9 -12 9 -7 -1 -1
-11 15 -23 15 -13 27 -26 27 -30 0 -4 -12 3 -27 17 -15 14 -31 22 -36 19 -6
-3 -7 -1 -3 6 4 6 0 14 -8 17 -9 3 -13 10 -10 15 3 5 -2 6 -10 3 -11 -4 -16 0
-16 12 0 16 -2 17 -10 4 -8 -13 -10 -12 -10 3 0 9 -5 17 -11 17 -5 0 -8 -4 -5
-8 3 -5 -1 -9 -8 -9 -9 0 -12 7 -8 16 3 9 2 13 -3 9 -4 -4 -14 0 -22 10 -8 9
-12 11 -8 5 3 -7 1 -13 -5 -13 -6 0 -10 9 -8 20 2 10 -1 18 -7 17 -5 -1 -9 -5
-8 -8 1 -3 -4 -6 -12 -6 -8 0 -12 4 -9 9 4 5 -3 12 -14 15 -14 3 -19 11 -15
21 3 10 1 13 -4 7 -4 -5 -18 -10 -30 -11 -16 0 -20 4 -17 20 2 14 1 17 -7 9
-14 -14 -39 -6 -39 12 0 8 -5 17 -12 21 -7 4 -8 3 -4 -4 4 -7 1 -12 -9 -12 -9
0 -14 4 -11 9 3 5 -1 12 -10 15 -8 3 -13 2 -10 -2 3 -5 -1 -9 -8 -9 -8 0 -12
6 -9 14 4 9 0 11 -11 7 -11 -4 -15 -2 -11 8 5 14 -9 18 -63 18 -15 0 -21 4
-16 11 4 7 1 10 -7 7 -8 -3 -20 2 -27 11 -11 13 -12 13 -6 1 5 -10 0 -8 -15 4
-22 20 -22 20 -16 0 6 -18 6 -18 -9 0 -9 11 -21 16 -32 12 -12 -4 -15 -2 -11
9 4 8 1 17 -5 21 -7 4 -8 3 -4 -4 4 -7 1 -12 -9 -12 -9 0 -13 5 -10 10 3 6 1
10 -4 10 -6 0 -11 -6 -12 -12 0 -7 -4 -4 -9 7 -8 18 -9 18 -9 2 -1 -10 -6 -15
-11 -12 -6 4 -8 10 -5 15 3 5 0 12 -6 16 -8 4 -9 3 -5 -4 4 -7 1 -12 -8 -12
-8 0 -16 -6 -19 -12 -3 -7 -4 -3 -4 9 1 12 6 19 12 15 5 -3 4 2 -4 11 -13 17
-26 24 -18 10 3 -5 -1 -14 -9 -21 -9 -8 -14 -9 -14 -2 0 6 -5 8 -12 4 -7 -4
-8 -3 -4 5 4 6 13 8 19 5 7 -4 8 -3 4 2 -12 12 -30 12 -39 -1 -5 -6 -8 -6 -8
3 0 6 -5 12 -11 12 -5 0 -7 -5 -3 -12 5 -7 3 -8 -7 -2 -21 13 -42 14 -56 2 -9
-7 -13 -7 -13 0 0 12 28 24 40 17 5 -3 11 -1 14 4 4 6 -7 8 -25 6 -28 -4 -30
-3 -18 13 11 14 11 15 -1 5 -8 -7 -22 -13 -32 -13 -10 0 -18 6 -18 13 0 8 -4
7 -10 -3 -5 -8 -10 -10 -10 -4 0 6 -7 11 -15 11 -11 0 -12 -4 -4 -14 16 -18 4
-16 -15 3 -10 9 -16 11 -16 4 0 -7 -6 -6 -15 3 -17 17 -59 11 -48 -7 4 -6 -1
-5 -10 3 -9 7 -17 10 -17 6 0 -4 -8 -1 -17 6 -15 12 -16 12 -10 -6 7 -18 6
-19 -6 -3 -8 10 -17 15 -20 11 -4 -3 -7 -1 -7 5 0 13 27 12 48 -1 7 -5 12 -3
12 5 0 10 -22 14 -85 14 -61 1 -83 -2 -78 -10 5 -8 3 -8 -8 0 -22 18 -335 14
-331 -4 1 -8 -2 -11 -8 -7 -6 3 -8 11 -5 16 4 5 -3 9 -15 9 -12 0 -19 -4 -15
-9 3 -5 0 -13 -6 -17 -8 -4 -9 -3 -5 4 4 7 1 13 -6 14 -34 4 -130 2 -134 -3z
m121 -9 c3 -6 -1 -7 -9 -4 -18 7 -21 14 -7 14 6 0 13 -4 16 -10z m495 0 c0 -5
-5 -10 -11 -10 -5 0 -7 5 -4 10 3 6 8 10 11 10 2 0 4 -4 4 -10z m-1180 -174
c0 -3 -4 -8 -10 -11 -5 -3 -10 -1 -10 4 0 6 5 11 10 11 6 0 10 -2 10 -4z
m-276 -127 c-3 -5 -10 -7 -15 -3 -5 3 -7 10 -3 15 3 5 10 7 15 3 5 -3 7 -10 3
-15z m2846 -283 c0 -6 -5 -3 -11 7 -6 9 -15 14 -21 11 -7 -4 -8 -2 -4 5 9 14
36 -3 36 -23z m435 -455 c3 -5 0 -13 -6 -17 -7 -4 -9 -3 -5 4 3 5 0 13 -6 15
-9 4 -10 6 -1 6 6 1 14 -3 18 -8z m335 -635 c0 -3 -4 -8 -10 -11 -5 -3 -10 -1
-10 4 0 6 5 11 10 11 6 0 10 -2 10 -4z m-4923 -491 c0 -8 -4 -12 -9 -9 -5 3
-6 10 -3 15 9 13 12 11 12 -6z m-17 -59 c0 -8 -4 -17 -9 -21 -6 -3 -9 4 -8 15
1 23 17 28 17 6z m5072 -58 c-7 -7 -12 -8 -12 -2 0 6 3 14 7 17 3 4 9 5 12 2
2 -3 -1 -11 -7 -17z m1 -53 c-7 -21 -12 -19 -10 4 0 11 5 18 9 15 4 -3 5 -11
1 -19z m-5078 -385 c3 -5 1 -10 -4 -10 -6 0 -11 5 -11 10 0 6 2 10 4 10 3 0 8
-4 11 -10z m5 -80 c0 -5 -5 -10 -11 -10 -5 0 -7 5 -4 10 3 6 8 10 11 10 2 0 4
-4 4 -10z m5061 -33 c-10 -9 -11 -8 -5 6 3 10 9 15 12 12 3 -3 0 -11 -7 -18z
m-16 -206 c-2 -9 -4 -19 -4 -23 -2 -19 -17 -5 -17 15 0 13 5 24 12 24 6 0 10
-7 9 -16z m-25 -101 c0 -5 -2 -10 -4 -10 -3 0 -8 5 -11 10 -3 6 -1 10 4 10 6
0 11 -4 11 -10z m-250 -646 c0 -8 -19 -13 -24 -6 -3 5 1 9 9 9 8 0 15 -2 15
-3z m-4453 -19 c0 -8 -4 -12 -9 -9 -5 3 -6 10 -3 15 9 13 12 11 12 -6z m54
-92 c13 -16 12 -17 -3 -4 -10 7 -18 15 -18 17 0 8 8 3 21 -13z m4213 -158 c-4
-8 -11 -15 -16 -15 -6 0 -5 6 2 15 7 8 14 15 16 15 2 0 1 -7 -2 -15z m-3743
-392 c13 -15 12 -15 -8 -4 -24 12 -29 21 -14 21 5 0 15 -7 22 -17z m3299 -89
c0 -8 -19 -13 -24 -6 -3 5 1 9 9 9 8 0 15 -2 15 -3z m-195 -123 c3 -5 2 -12
-3 -15 -5 -3 -9 1 -9 9 0 17 3 19 12 6z m-2805 -16 c11 -13 10 -14 -4 -9 -9 3
-16 10 -16 15 0 13 6 11 20 -6z m2340 -231 c0 -8 -19 -13 -24 -6 -3 5 1 9 9 9
8 0 15 -2 15 -3z m-60 -28 c0 -2 -7 -7 -16 -10 -8 -3 -12 -2 -9 4 6 10 25 14
25 6z m-1310 -112 c0 -8 -19 -13 -24 -6 -3 5 1 9 9 9 8 0 15 -2 15 -3z"/>
<path d="M2906 5103 c-6 -14 -5 -15 5 -6 7 7 10 15 7 18 -3 3 -9 -2 -12 -12z"/>
<path d="M4590 4121 c0 -6 4 -13 10 -16 6 -3 7 1 4 9 -7 18 -14 21 -14 7z"/>
<path d="M358 3885 c-21 -27 -24 -43 -5 -23 26 28 39 48 31 48 -5 0 -17 -11
-26 -25z"/>
<path d="M5055 3141 c-3 -5 -2 -12 3 -15 5 -3 9 1 9 9 0 17 -3 19 -12 6z"/>
<path d="M5 2220 c-3 -5 -1 -10 4 -10 6 0 11 5 11 10 0 6 -2 10 -4 10 -3 0 -8
-4 -11 -10z"/>
<path d="M4985 1750 c-3 -6 1 -7 9 -4 18 7 21 14 7 14 -6 0 -13 -4 -16 -10z"/>
<path d="M4900 1527 c-12 -21 -12 -21 6 -7 10 8 20 15 22 16 2 1 -1 4 -5 7 -5
3 -15 -4 -23 -16z"/>
<path d="M4347 733 c-4 -3 -7 -11 -7 -17 0 -6 5 -5 12 2 6 6 9 14 7 17 -3 3
-9 2 -12 -2z"/>
<path d="M1713 135 c0 -8 4 -12 9 -9 5 3 6 10 3 15 -9 13 -12 11 -12 -6z"/>
<path d="M1830 96 c0 -2 8 -10 18 -17 15 -13 16 -12 3 4 -13 16 -21 21 -21 13z"/>
<path d="M2035 40 c-3 -5 -1 -10 4 -10 6 0 11 5 11 10 0 6 -2 10 -4 10 -3 0
-8 -4 -11 -10z"/>
<path d="M2935 30 c-3 -5 -1 -10 4 -10 6 0 11 5 11 10 0 6 -2 10 -4 10 -3 0
-8 -4 -11 -10z"/>
</g>
</svg>
